<?xml version="1.0" standalone="no"?>
<!DOCTYPE svg PUBLIC "-//W3C//DTD SVG 20010904//EN"
 "http://www.w3.org/TR/2001/REC-SVG-20010904/DTD/svg10.dtd">
<svg version="1.0" xmlns="http://www.w3.org/2000/svg"
 width="1280.000000pt" height="900.000000pt" viewBox="0 0 1280.000000 900.000000"
 preserveAspectRatio="xMidYMid meet">

<g transform="translate(0.000000,900.000000) scale(0.100000,-0.100000)"
fill="#000000" stroke="none">
<path d="M4052 7320 c-136 -36 -245 -116 -313 -230 -22 -37 -83 -168 -135
-291 -115 -270 -163 -363 -227 -435 -54 -60 -88 -81 -150 -94 l-42 -8 48 -1
c96 -2 198 76 298 229 28 41 101 176 165 300 63 124 130 247 150 273 40 55
130 117 207 144 76 26 217 24 278 -3 66 -31 113 -77 140 -136 20 -45 23 -68
23 -151 -1 -108 -8 -99 80 -111 61 -8 110 -47 143 -113 27 -56 28 -64 28 -198
-1 -131 -3 -146 -33 -235 -18 -52 -43 -110 -54 -130 l-21 -35 21 20 c38 37 92
139 124 235 28 83 32 109 32 210 1 107 -1 120 -28 178 -31 68 -74 112 -141
144 l-42 21 -6 78 c-18 267 -256 414 -545 339z"/>
<path d="M4427 6460 c-22 -61 -80 -123 -153 -162 -28 -15 -136 -56 -240 -91
-215 -73 -290 -108 -354 -165 -58 -51 -108 -135 -116 -195 -8 -57 4 -61 31
-10 43 80 215 191 465 300 172 75 246 118 306 178 52 52 89 131 82 176 -2 15
-8 6 -21 -31z"/>
<path d="M3043 6405 c-131 -36 -250 -134 -310 -255 -143 -293 -19 -644 264
-741 61 -21 86 -24 233 -24 154 0 173 2 293 33 70 18 131 31 136 28 24 -15
133 -283 166 -406 20 -74 50 -179 68 -235 l32 -100 3 65 c4 86 -23 246 -59
344 -55 150 -287 546 -320 546 -5 0 2 -11 15 -25 12 -13 37 -56 53 -94 28 -62
29 -70 15 -77 -10 -4 -102 -9 -207 -12 -275 -6 -396 24 -503 123 -123 114
-169 283 -127 463 41 173 153 289 343 352 l87 29 -65 0 c-36 0 -89 -7 -117
-14z"/>
<path d="M4416 6199 c-21 -199 58 -436 181 -549 52 -48 140 -107 147 -99 2 2
-41 60 -95 129 -154 196 -200 303 -217 505 l-8 90 -8 -76z"/>
<path d="M4393 5515 c-203 -37 -314 -97 -407 -220 -84 -110 -85 -125 -3 -42
162 164 318 227 563 227 326 0 601 -144 721 -377 75 -145 83 -268 24 -387 -35
-71 -134 -172 -214 -219 -121 -71 -432 -163 -587 -174 -75 -5 -91 -3 -128 16
-81 41 -103 -7 -61 -132 48 -145 210 -448 283 -534 73 -84 198 -123 281 -89
48 20 46 37 -2 24 -127 -35 -241 69 -353 320 -52 117 -110 288 -110 326 0 26
21 36 77 36 62 0 245 41 384 86 272 88 422 190 496 341 33 67 38 85 41 168 6
135 -31 237 -127 353 -183 220 -551 336 -878 277z"/>
<path d="M4644 5154 c-4 -11 -20 -37 -36 -59 -159 -219 -495 -720 -604 -900
-83 -138 -144 -266 -144 -302 0 -27 33 -47 63 -39 18 4 25 19 38 74 21 85 75
200 169 357 89 147 422 650 496 747 55 73 65 106 39 128 -12 10 -16 9 -21 -6z"/>
<path d="M7595 5021 c-36 -16 -61 -49 -223 -293 -172 -260 -186 -278 -239
-309 -75 -45 -83 -60 -55 -99 l23 -30 -54 -100 c-61 -113 -83 -134 -267 -245
-176 -106 -272 -132 -305 -82 -26 40 -4 91 268 619 35 67 32 104 -10 114 -14
4 -32 3 -40 -2 -17 -11 -184 -358 -238 -494 -47 -118 -56 -200 -27 -246 22
-34 94 -74 133 -74 30 0 173 80 284 159 112 79 111 79 79 25 -16 -27 -63 -114
-104 -194 l-75 -145 -128 -7 c-301 -15 -721 -109 -996 -222 -257 -106 -387
-181 -558 -322 -233 -192 -357 -366 -414 -579 -31 -117 -32 -319 -1 -428 88
-309 328 -502 602 -484 386 25 778 413 1169 1158 39 75 71 141 71 147 0 7 -13
12 -29 12 -28 0 -34 -9 -118 -172 -265 -515 -577 -900 -832 -1027 -104 -52
-158 -65 -271 -66 -172 0 -289 47 -405 165 -126 126 -173 229 -182 395 -9 170
37 319 151 489 97 145 322 357 480 452 27 16 88 53 135 81 123 75 206 117 318
162 193 76 423 142 617 176 105 18 363 41 371 33 7 -6 -35 -106 -144 -352 -39
-87 -70 -160 -69 -161 2 -2 17 -5 33 -9 l30 -6 62 147 c34 82 83 201 110 267
l48 119 87 -6 c56 -4 90 -2 94 5 11 18 -19 28 -88 28 -37 0 -69 4 -73 10 -14
23 175 395 236 465 16 18 29 37 29 43 0 6 27 46 59 90 33 44 76 105 96 135 30
45 48 61 100 85 125 60 222 76 289 48 49 -20 66 -51 66 -118 0 -74 -22 -138
-73 -215 l-41 -62 -176 -60 c-96 -32 -212 -73 -258 -91 -82 -31 -83 -32 -80
-63 l3 -32 60 2 c33 0 89 9 125 18 88 22 238 96 303 149 39 31 79 52 151 76
53 17 99 30 101 29 1 -2 -1 -32 -7 -66 -12 -78 1 -126 47 -180 51 -60 113 -87
182 -80 83 9 343 141 320 163 -3 4 -47 -12 -97 -35 -89 -41 -220 -81 -267 -81
-41 0 -92 28 -113 62 -24 40 -27 122 -5 195 l15 50 65 18 c36 9 68 22 72 28 4
6 -3 8 -18 4 -56 -13 -99 -19 -99 -12 0 11 71 128 101 167 l29 36 318 4 c174
2 326 8 337 13 14 6 9 -4 -16 -36 -96 -118 -93 -194 12 -335 22 -28 39 -55 38
-60 0 -5 -39 -36 -87 -69 -137 -95 -222 -166 -222 -186 0 -16 10 -17 108 -14
113 4 198 27 302 81 110 57 130 103 78 177 -11 15 -18 33 -15 40 11 30 307
168 487 228 118 39 79 36 -65 -5 -156 -45 -234 -75 -362 -139 l-105 -52 -39
44 c-45 50 -89 138 -89 177 0 75 87 174 243 278 184 122 294 154 425 121 76
-18 105 -12 145 33 53 58 -18 76 -175 44 -116 -24 -251 -77 -379 -148 -54 -30
-100 -54 -104 -54 -3 0 -21 -11 -39 -25 -18 -13 -54 -34 -82 -47 -45 -21 -66
-22 -274 -25 l-225 -3 60 18 c185 55 278 155 246 264 -18 60 -63 98 -114 98
-74 0 -204 -88 -343 -231 -106 -111 -157 -181 -225 -313 l-56 -109 -61 -17
c-34 -10 -62 -13 -62 -8 0 4 11 26 25 48 88 140 91 301 6 345 -67 34 -178 28
-326 -19 -41 -13 -75 -21 -75 -17 0 21 307 502 329 515 15 10 14 26 -1 26 -7
0 -31 -9 -53 -19z m903 -283 c34 -34 -10 -126 -87 -182 -88 -65 -227 -116
-315 -116 l-41 0 80 81 c180 181 317 263 363 217z m291 -824 c26 -33 27 -76 4
-96 -49 -42 -251 -96 -266 -71 -3 5 11 26 31 45 41 40 189 148 202 148 5 0 18
-12 29 -26z"/>
<path d="M5632 4786 c-176 -95 -378 -316 -477 -521 -70 -145 -85 -282 -39
-351 63 -95 148 -130 249 -103 88 24 290 137 274 153 -3 3 -46 -12 -96 -34
-121 -54 -246 -86 -297 -76 -50 10 -92 52 -102 102 -17 91 40 252 136 387 l41
57 267 0 c147 0 291 3 320 7 l54 6 -38 -59 c-83 -130 -138 -318 -115 -396 21
-70 103 -142 182 -161 14 -4 52 0 84 8 93 25 302 141 285 158 -3 3 -41 -12
-86 -33 -149 -72 -291 -98 -353 -65 -67 34 -79 157 -29 283 59 143 199 326
360 468 79 70 182 134 215 134 35 0 56 -28 50 -68 -8 -46 -44 -90 -132 -164
-41 -34 -73 -64 -71 -65 2 -2 28 6 59 17 75 28 192 135 209 191 22 76 -38 143
-128 141 -101 -1 -282 -129 -426 -302 l-47 -55 -223 -2 c-123 -1 -214 1 -203
3 228 56 335 170 281 298 -34 81 -103 96 -204 42z m161 -57 c5 -9 7 -32 3 -54
-19 -102 -252 -236 -407 -235 l-44 1 107 103 c136 132 247 208 296 204 19 -2
39 -10 45 -19z"/>
</g>
</svg>
